<svg width="17" height="12" viewBox="0 0 17 12" fill="none" xmlns="http://www.w3.org/2000/svg">
<path d="M10.0125 11.275C9.81253 11.075 9.71653 10.8333 9.72453 10.55C9.73253 10.2667 9.83686 10.025 10.0375 9.82499L12.8625 6.99999H1.71253C1.42919 6.99999 1.19153 6.90399 0.999528 6.71199C0.807528 6.51999 0.711861 6.28265 0.712528 5.99999C0.712528 5.71665 0.808528 5.47899 1.00053 5.28699C1.19253 5.09499 1.42986 4.99932 1.71253 4.99999H12.8625L10.0125 2.14999C9.81253 1.94999 9.71253 1.71232 9.71253 1.43699C9.71253 1.16165 9.81253 0.924321 10.0125 0.724988C10.2125 0.524988 10.4502 0.424988 10.7255 0.424988C11.0009 0.424988 11.2382 0.524988 11.4375 0.724988L16.0125 5.29999C16.1125 5.39999 16.1835 5.50832 16.2255 5.62499C16.2675 5.74165 16.2882 5.86665 16.2875 5.99999C16.2875 6.13332 16.2665 6.25832 16.2245 6.37499C16.1825 6.49165 16.1119 6.59999 16.0125 6.69999L11.4125 11.3C11.2292 11.4833 11.0002 11.575 10.7255 11.575C10.4509 11.575 10.2132 11.475 10.0125 11.275Z" fill="white"/>
</svg>
