<svg width="53" height="52" viewBox="0 0 53 52" fill="none" xmlns="http://www.w3.org/2000/svg">
<mask id="path-1-inside-1_87_363" fill="white">
<path fill-rule="evenodd" clip-rule="evenodd" d="M15.2343 22.8578C15.2343 22.8578 16.0855 22.7425 17.3206 22.4115C20.5772 21.5388 26.5 19.1702 26.5 13.4733C26.5 12.642 26.337 11.819 26.0202 11.051C25.7035 10.2831 25.2393 9.58527 24.654 8.99751C24.0688 8.40974 23.374 7.9435 22.6094 7.62541C21.8447 7.30731 21.0251 7.14359 20.1975 7.14359H14.0264C13.192 7.13281 12.3638 7.28855 11.5898 7.60178C10.8158 7.91502 10.1114 8.3795 9.51754 8.96829C8.92369 9.55707 8.45218 10.2584 8.13036 11.0317C7.80854 11.8049 7.64282 12.6347 7.64282 13.4727C7.64282 14.3108 7.80854 15.1405 8.13036 15.9138C8.45218 16.687 8.92369 17.3884 9.51754 17.9772C10.1114 18.566 10.8158 19.0305 11.5898 19.3437C12.3638 19.6569 13.192 19.8127 14.0264 19.8019H15.2343V22.8578ZM17.3206 17.7067H14.0264C13.4672 17.7155 12.9118 17.6125 12.3927 17.4037C11.8735 17.1949 11.4008 16.8844 11.0023 16.4904C10.6037 16.0964 10.2872 15.6266 10.0711 15.1086C9.85509 14.5905 9.74382 14.0344 9.74382 13.4727C9.74382 12.9111 9.85509 12.355 10.0711 11.8369C10.2872 11.3188 10.6037 10.8491 11.0023 10.4551C11.4008 10.061 11.8735 9.75058 12.3927 9.54177C12.9118 9.33297 13.4672 9.22998 14.0264 9.23881H20.1975C20.7512 9.23881 21.2994 9.34834 21.811 9.56114C22.3225 9.77394 22.7873 10.0859 23.1788 10.4791C23.5704 10.8723 23.8809 11.3391 24.0928 11.8528C24.3047 12.3666 24.4138 12.9172 24.4138 13.4733C24.4138 16.1792 22.5278 17.9811 19.9607 19.2247C19.1087 19.6312 18.2258 19.9693 17.3206 20.2356V17.7067ZM16.5904 34.3815C18.8957 34.3815 20.7629 32.5063 20.7629 30.1911C20.7629 27.8758 18.8957 26.0006 16.5904 26.0006C14.2851 26.0006 12.4179 27.8758 12.4179 30.1911C12.4179 32.5063 14.2851 34.3815 16.5904 34.3815ZM18.6766 30.1911C18.6766 30.7467 18.4568 31.2797 18.0656 31.6726C17.6743 32.0655 17.1437 32.2863 16.5904 32.2863C16.0371 32.2863 15.5064 32.0655 15.1152 31.6726C14.724 31.2797 14.5042 30.7467 14.5042 30.1911C14.5042 29.6354 14.724 29.1024 15.1152 28.7095C15.5064 28.3166 16.0371 28.0958 16.5904 28.0958C17.1437 28.0958 17.6743 28.3166 18.0656 28.7095C18.4568 29.1024 18.6766 29.6354 18.6766 30.1911ZM7.7239 40.9469C7.7239 37.9738 13.6311 36.4767 16.5904 36.4767C19.5497 36.4767 25.4569 37.9748 25.4569 40.9469V44.8576H7.7239V40.9469ZM9.81013 42.7624V40.9469C9.81013 40.9364 9.81013 40.9155 9.83726 40.8631C9.87064 40.7981 9.94678 40.6839 10.1116 40.531C10.4548 40.2115 11.0295 39.8626 11.8254 39.541C13.4214 38.8967 15.372 38.5719 16.5904 38.5719C17.8077 38.5719 19.7604 38.8967 21.3553 39.541C22.1502 39.8626 22.726 40.2115 23.0692 40.531C23.234 40.6839 23.3101 40.7981 23.3435 40.862C23.3706 40.9144 23.3706 40.9375 23.3706 40.9458V42.7624H9.81013ZM40.5821 30.1911C40.5821 32.5063 38.7149 34.3815 36.4096 34.3815C34.1043 34.3815 32.2371 32.5063 32.2371 30.1911C32.2371 27.8758 34.1043 26.0006 36.4096 26.0006C38.7149 26.0006 40.5821 27.8758 40.5821 30.1911ZM36.4096 32.2863C36.9629 32.2863 37.4935 32.0655 37.8848 31.6726C38.276 31.2797 38.4958 30.7467 38.4958 30.1911C38.4958 29.6354 38.276 29.1024 37.8848 28.7095C37.4935 28.3166 36.9629 28.0958 36.4096 28.0958C35.8563 28.0958 35.3257 28.3166 34.9344 28.7095C34.5432 29.1024 34.3234 29.6354 34.3234 30.1911C34.3234 30.7467 34.5432 31.2797 34.9344 31.6726C35.3257 32.0655 35.8563 32.2863 36.4096 32.2863ZM27.5431 40.9469C27.5431 37.9738 33.4503 36.4767 36.4096 36.4767C39.3689 36.4767 45.2761 37.9748 45.2761 40.9469V44.8576H27.5431V40.9469ZM29.6293 42.7624V40.9469C29.6293 40.9364 29.6293 40.9155 29.6565 40.8631C29.6898 40.7981 29.766 40.6839 29.9298 40.531C30.274 40.2115 30.8498 39.8626 31.6446 39.541C33.2406 38.8967 35.1912 38.5719 36.4096 38.5719C37.6269 38.5719 39.5796 38.8967 41.1746 39.541C41.9694 39.8626 42.5452 40.2115 42.8894 40.531C43.0532 40.6839 43.1294 40.7981 43.1627 40.862C43.1899 40.9144 43.1899 40.9375 43.1899 40.9458V42.7624H29.6293ZM36.5139 23.3879C37.7344 23.7734 38.6001 23.9054 38.6001 23.9054V20.8495H38.9736C39.808 20.8603 40.6362 20.7045 41.4102 20.3913C42.1842 20.0781 42.8886 19.6136 43.4824 19.0248C44.0763 18.436 44.5478 17.7347 44.8696 16.9614C45.1914 16.1882 45.3572 15.3584 45.3572 14.5203C45.3572 13.6823 45.1914 12.8525 44.8696 12.0793C44.5478 11.306 44.0763 10.6047 43.4824 10.0159C42.8886 9.42711 42.1842 8.96263 41.4102 8.6494C40.6362 8.33616 39.808 8.18042 38.9736 8.1912H34.8887C33.2172 8.1912 31.6141 8.85808 30.4322 10.0451C29.2502 11.2322 28.5862 12.8421 28.5862 14.5209C28.5862 20.069 33.5796 22.4618 36.5139 23.3879ZM38.9736 18.7543H36.5139V21.1774C35.8516 20.9398 35.2079 20.6527 34.5883 20.3184C32.4145 19.1335 30.6725 17.3557 30.6725 14.5198C30.6727 13.397 31.1171 12.3202 31.9077 11.5263C32.6984 10.7324 33.7707 10.2864 34.8887 10.2864H38.9736C39.5328 10.2776 40.0881 10.3806 40.6073 10.5894C41.1265 10.7982 41.5992 11.1087 41.9977 11.5027C42.3963 11.8967 42.7128 12.3665 42.9289 12.8845C43.1449 13.4026 43.2562 13.9587 43.2562 14.5203C43.2562 15.082 43.1449 15.6381 42.9289 16.1562C42.7128 16.6742 42.3963 17.144 41.9977 17.538C41.5992 17.932 41.1265 18.2425 40.6073 18.4513C40.0881 18.6601 39.5328 18.7631 38.9736 18.7543Z"/>
</mask>
<path fill-rule="evenodd" clip-rule="evenodd" d="M15.2343 22.8578C15.2343 22.8578 16.0855 22.7425 17.3206 22.4115C20.5772 21.5388 26.5 19.1702 26.5 13.4733C26.5 12.642 26.337 11.819 26.0202 11.051C25.7035 10.2831 25.2393 9.58527 24.654 8.99751C24.0688 8.40974 23.374 7.9435 22.6094 7.62541C21.8447 7.30731 21.0251 7.14359 20.1975 7.14359H14.0264C13.192 7.13281 12.3638 7.28855 11.5898 7.60178C10.8158 7.91502 10.1114 8.3795 9.51754 8.96829C8.92369 9.55707 8.45218 10.2584 8.13036 11.0317C7.80854 11.8049 7.64282 12.6347 7.64282 13.4727C7.64282 14.3108 7.80854 15.1405 8.13036 15.9138C8.45218 16.687 8.92369 17.3884 9.51754 17.9772C10.1114 18.566 10.8158 19.0305 11.5898 19.3437C12.3638 19.6569 13.192 19.8127 14.0264 19.8019H15.2343V22.8578ZM17.3206 17.7067H14.0264C13.4672 17.7155 12.9118 17.6125 12.3927 17.4037C11.8735 17.1949 11.4008 16.8844 11.0023 16.4904C10.6037 16.0964 10.2872 15.6266 10.0711 15.1086C9.85509 14.5905 9.74382 14.0344 9.74382 13.4727C9.74382 12.9111 9.85509 12.355 10.0711 11.8369C10.2872 11.3188 10.6037 10.8491 11.0023 10.4551C11.4008 10.061 11.8735 9.75058 12.3927 9.54177C12.9118 9.33297 13.4672 9.22998 14.0264 9.23881H20.1975C20.7512 9.23881 21.2994 9.34834 21.811 9.56114C22.3225 9.77394 22.7873 10.0859 23.1788 10.4791C23.5704 10.8723 23.8809 11.3391 24.0928 11.8528C24.3047 12.3666 24.4138 12.9172 24.4138 13.4733C24.4138 16.1792 22.5278 17.9811 19.9607 19.2247C19.1087 19.6312 18.2258 19.9693 17.3206 20.2356V17.7067ZM16.5904 34.3815C18.8957 34.3815 20.7629 32.5063 20.7629 30.1911C20.7629 27.8758 18.8957 26.0006 16.5904 26.0006C14.2851 26.0006 12.4179 27.8758 12.4179 30.1911C12.4179 32.5063 14.2851 34.3815 16.5904 34.3815ZM18.6766 30.1911C18.6766 30.7467 18.4568 31.2797 18.0656 31.6726C17.6743 32.0655 17.1437 32.2863 16.5904 32.2863C16.0371 32.2863 15.5064 32.0655 15.1152 31.6726C14.724 31.2797 14.5042 30.7467 14.5042 30.1911C14.5042 29.6354 14.724 29.1024 15.1152 28.7095C15.5064 28.3166 16.0371 28.0958 16.5904 28.0958C17.1437 28.0958 17.6743 28.3166 18.0656 28.7095C18.4568 29.1024 18.6766 29.6354 18.6766 30.1911ZM7.7239 40.9469C7.7239 37.9738 13.6311 36.4767 16.5904 36.4767C19.5497 36.4767 25.4569 37.9748 25.4569 40.9469V44.8576H7.7239V40.9469ZM9.81013 42.7624V40.9469C9.81013 40.9364 9.81013 40.9155 9.83726 40.8631C9.87064 40.7981 9.94678 40.6839 10.1116 40.531C10.4548 40.2115 11.0295 39.8626 11.8254 39.541C13.4214 38.8967 15.372 38.5719 16.5904 38.5719C17.8077 38.5719 19.7604 38.8967 21.3553 39.541C22.1502 39.8626 22.726 40.2115 23.0692 40.531C23.234 40.6839 23.3101 40.7981 23.3435 40.862C23.3706 40.9144 23.3706 40.9375 23.3706 40.9458V42.7624H9.81013ZM40.5821 30.1911C40.5821 32.5063 38.7149 34.3815 36.4096 34.3815C34.1043 34.3815 32.2371 32.5063 32.2371 30.1911C32.2371 27.8758 34.1043 26.0006 36.4096 26.0006C38.7149 26.0006 40.5821 27.8758 40.5821 30.1911ZM36.4096 32.2863C36.9629 32.2863 37.4935 32.0655 37.8848 31.6726C38.276 31.2797 38.4958 30.7467 38.4958 30.1911C38.4958 29.6354 38.276 29.1024 37.8848 28.7095C37.4935 28.3166 36.9629 28.0958 36.4096 28.0958C35.8563 28.0958 35.3257 28.3166 34.9344 28.7095C34.5432 29.1024 34.3234 29.6354 34.3234 30.1911C34.3234 30.7467 34.5432 31.2797 34.9344 31.6726C35.3257 32.0655 35.8563 32.2863 36.4096 32.2863ZM27.5431 40.9469C27.5431 37.9738 33.4503 36.4767 36.4096 36.4767C39.3689 36.4767 45.2761 37.9748 45.2761 40.9469V44.8576H27.5431V40.9469ZM29.6293 42.7624V40.9469C29.6293 40.9364 29.6293 40.9155 29.6565 40.8631C29.6898 40.7981 29.766 40.6839 29.9298 40.531C30.274 40.2115 30.8498 39.8626 31.6446 39.541C33.2406 38.8967 35.1912 38.5719 36.4096 38.5719C37.6269 38.5719 39.5796 38.8967 41.1746 39.541C41.9694 39.8626 42.5452 40.2115 42.8894 40.531C43.0532 40.6839 43.1294 40.7981 43.1627 40.862C43.1899 40.9144 43.1899 40.9375 43.1899 40.9458V42.7624H29.6293ZM36.5139 23.3879C37.7344 23.7734 38.6001 23.9054 38.6001 23.9054V20.8495H38.9736C39.808 20.8603 40.6362 20.7045 41.4102 20.3913C42.1842 20.0781 42.8886 19.6136 43.4824 19.0248C44.0763 18.436 44.5478 17.7347 44.8696 16.9614C45.1914 16.1882 45.3572 15.3584 45.3572 14.5203C45.3572 13.6823 45.1914 12.8525 44.8696 12.0793C44.5478 11.306 44.0763 10.6047 43.4824 10.0159C42.8886 9.42711 42.1842 8.96263 41.4102 8.6494C40.6362 8.33616 39.808 8.18042 38.9736 8.1912H34.8887C33.2172 8.1912 31.6141 8.85808 30.4322 10.0451C29.2502 11.2322 28.5862 12.8421 28.5862 14.5209C28.5862 20.069 33.5796 22.4618 36.5139 23.3879ZM38.9736 18.7543H36.5139V21.1774C35.8516 20.9398 35.2079 20.6527 34.5883 20.3184C32.4145 19.1335 30.6725 17.3557 30.6725 14.5198C30.6727 13.397 31.1171 12.3202 31.9077 11.5263C32.6984 10.7324 33.7707 10.2864 34.8887 10.2864H38.9736C39.5328 10.2776 40.0881 10.3806 40.6073 10.5894C41.1265 10.7982 41.5992 11.1087 41.9977 11.5027C42.3963 11.8967 42.7128 12.3665 42.9289 12.8845C43.1449 13.4026 43.2562 13.9587 43.2562 14.5203C43.2562 15.082 43.1449 15.6381 42.9289 16.1562C42.7128 16.6742 42.3963 17.144 41.9977 17.538C41.5992 17.932 41.1265 18.2425 40.6073 18.4513C40.0881 18.6601 39.5328 18.7631 38.9736 18.7543Z" fill="#003760" stroke="white" stroke-width="0.8" mask="url(#path-1-inside-1_87_363)"/>
</svg>
