<svg width="38" height="40" viewBox="0 0 38 40" fill="none" xmlns="http://www.w3.org/2000/svg">
<path fill-rule="evenodd" clip-rule="evenodd" d="M26.7775 0.0898438C33.0655 0.0898438 37.2895 4.39584 37.2895 10.8038V29.1958C37.2895 35.6598 33.1955 39.8638 26.8595 39.9038L11.4735 39.9098C5.18547 39.9098 0.959473 35.6038 0.959473 29.1958V10.8038C0.959473 4.33784 5.05347 0.135844 11.3895 0.0978438L26.7755 0.0898438H26.7775ZM26.7775 3.08984L11.3995 3.09784C6.74347 3.12584 3.95947 6.00584 3.95947 10.8038V29.1958C3.95947 34.0258 6.76947 36.9098 11.4715 36.9098L26.8495 36.9038C31.5055 36.8758 34.2895 33.9918 34.2895 29.1958V10.8038C34.2895 5.97384 31.4815 3.08984 26.7775 3.08984ZM26.3917 27.0372C27.2197 27.0372 27.8917 27.7092 27.8917 28.5372C27.8917 29.3652 27.2197 30.0372 26.3917 30.0372H11.9517C11.1237 30.0372 10.4517 29.3652 10.4517 28.5372C10.4517 27.7092 11.1237 27.0372 11.9517 27.0372H26.3917ZM26.3917 18.6642C27.2197 18.6642 27.8917 19.3362 27.8917 20.1642C27.8917 20.9922 27.2197 21.6642 26.3917 21.6642H11.9517C11.1237 21.6642 10.4517 20.9922 10.4517 20.1642C10.4517 19.3362 11.1237 18.6642 11.9517 18.6642H26.3917ZM17.4611 10.3106C18.2891 10.3106 18.9611 10.9826 18.9611 11.8106C18.9611 12.6386 18.2891 13.3106 17.4611 13.3106H11.9511C11.1231 13.3106 10.4511 12.6386 10.4511 11.8106C10.4511 10.9826 11.1231 10.3106 11.9511 10.3106H17.4611Z" fill="#0D1250"/>
</svg>
