<svg width="15" height="15" viewBox="0 0 15 15" fill="none" xmlns="http://www.w3.org/2000/svg">
<path d="M7.5 15C7.30593 15 7.14315 14.9345 7.01164 14.8034C6.88014 14.6724 6.81461 14.5096 6.81507 14.3151V13.6301C5.38813 13.4703 4.1637 12.8797 3.14178 11.8582C2.11986 10.8368 1.52922 9.61233 1.36986 8.18493H0.684931C0.490867 8.18493 0.328311 8.11918 0.19726 7.98767C0.0662101 7.85616 0.000456621 7.69361 0 7.5C0 7.30593 0.0657535 7.14315 0.19726 7.01164C0.328767 6.88014 0.491324 6.81461 0.684931 6.81507H1.36986C1.52968 5.38813 2.12055 4.1637 3.14247 3.14178C4.16438 2.11986 5.38858 1.52922 6.81507 1.36986V0.684931C6.81507 0.490867 6.88082 0.328311 7.01233 0.19726C7.14383 0.0662101 7.30639 0.000456621 7.5 0C7.69406 0 7.85685 0.0657535 7.98836 0.19726C8.11986 0.328767 8.18539 0.491324 8.18493 0.684931V1.36986C9.61187 1.52968 10.8363 2.12055 11.8582 3.14247C12.8801 4.16438 13.4708 5.38858 13.6301 6.81507H14.3151C14.5091 6.81507 14.6719 6.88082 14.8034 7.01233C14.9349 7.14383 15.0005 7.30639 15 7.5C15 7.69406 14.9345 7.85685 14.8034 7.98836C14.6724 8.11986 14.5096 8.18539 14.3151 8.18493H13.6301C13.4703 9.61187 12.8797 10.8363 11.8582 11.8582C10.8368 12.8801 9.61233 13.4708 8.18493 13.6301V14.3151C8.18493 14.5091 8.11918 14.6719 7.98767 14.8034C7.85616 14.9349 7.69361 15.0005 7.5 15ZM7.5 12.2945C8.8242 12.2945 9.95434 11.8265 10.8904 10.8904C11.8265 9.95434 12.2945 8.8242 12.2945 7.5C12.2945 6.1758 11.8265 5.04566 10.8904 4.10959C9.95434 3.17352 8.8242 2.70548 7.5 2.70548C6.1758 2.70548 5.04566 3.17352 4.10959 4.10959C3.17352 5.04566 2.70548 6.1758 2.70548 7.5C2.70548 8.8242 3.17352 9.95434 4.10959 10.8904C5.04566 11.8265 6.1758 12.2945 7.5 12.2945ZM7.5 10.2397C6.74657 10.2397 6.1016 9.97146 5.56507 9.43493C5.02854 8.8984 4.76027 8.25342 4.76027 7.5C4.76027 6.74657 5.02854 6.1016 5.56507 5.56507C6.1016 5.02854 6.74657 4.76027 7.5 4.76027C8.25342 4.76027 8.8984 5.02854 9.43493 5.56507C9.97146 6.1016 10.2397 6.74657 10.2397 7.5C10.2397 8.25342 9.97146 8.8984 9.43493 9.43493C8.8984 9.97146 8.25342 10.2397 7.5 10.2397Z" fill="#00AAFD"/>
</svg>
