<svg width="15" height="15" viewBox="0 0 15 15" fill="none" xmlns="http://www.w3.org/2000/svg">
<path d="M9.3863 0.859207C9.40708 0.779224 9.4587 0.71073 9.52986 0.668709C9.60102 0.626688 9.68592 0.614563 9.766 0.634986C10.8724 0.923147 11.8819 1.5013 12.6902 2.3098C13.4986 3.11829 14.0766 4.12783 14.3646 5.23425C14.3851 5.31422 14.373 5.39903 14.3312 5.47017C14.2893 5.54131 14.221 5.593 14.1412 5.61395C14.1158 5.62119 14.0895 5.62488 14.063 5.62488C13.9939 5.62466 13.9268 5.60153 13.8723 5.55913C13.8177 5.51672 13.7787 5.45742 13.7615 5.39051C13.5006 4.39211 12.9785 3.48123 12.2488 2.75155C11.5191 2.02188 10.6082 1.49976 9.60974 1.2389C9.5299 1.21795 9.46159 1.16626 9.41973 1.09512C9.37787 1.02399 9.36585 0.939175 9.3863 0.859207ZM8.98472 3.73893C10.1566 4.05377 10.9465 4.84363 11.2614 6.01551C11.2786 6.08243 11.3176 6.14172 11.3722 6.18413C11.4267 6.22654 11.4938 6.24967 11.5629 6.24989C11.5894 6.24988 11.6157 6.2462 11.6411 6.23895C11.721 6.21752 11.7892 6.16526 11.8306 6.09365C11.8721 6.02203 11.8834 5.93689 11.8622 5.85692C11.4872 4.45065 10.5457 3.51314 9.14098 3.13501C9.0629 3.11992 8.98201 3.13515 8.91477 3.17761C8.84754 3.22008 8.79902 3.28657 8.7791 3.36356C8.75918 3.44054 8.76936 3.52222 8.80756 3.59196C8.84577 3.66171 8.90912 3.71426 8.98472 3.73893ZM14.9959 11.4515C14.8662 12.4351 14.3828 13.3377 13.6359 13.9908C12.8891 14.6439 11.93 15.0026 10.9379 15C4.90644 15 8.7794e-06 10.0937 8.7794e-06 4.06237C-0.00204691 3.0707 0.356966 2.1122 1.00999 1.36588C1.66302 0.619566 2.56539 0.13648 3.54858 0.00685366C3.75 -0.0176334 3.95393 0.0238843 4.12974 0.125172C4.30556 0.22646 4.44377 0.38205 4.52362 0.568578L6.17211 4.25143C6.23373 4.39424 6.25886 4.55013 6.24522 4.70506C6.23158 4.85999 6.17961 5.0091 6.09399 5.13894C6.08696 5.1491 6.07992 5.15925 6.07211 5.16863L4.4158 7.13818C4.38981 7.18133 4.37492 7.23024 4.37247 7.28055C4.37001 7.33086 4.38007 7.38099 4.40174 7.42647C5.01426 8.68039 6.32759 9.98353 7.59639 10.596C7.6422 10.6173 7.69255 10.6269 7.74298 10.624C7.7934 10.6212 7.84234 10.6059 7.88546 10.5796L9.8285 8.92961L9.85819 8.90695C9.98822 8.82106 10.1376 8.76894 10.2928 8.7553C10.4481 8.74166 10.6043 8.76693 10.7473 8.82882L14.4365 10.482C14.6212 10.5623 14.7751 10.7 14.8754 10.8746C14.9757 11.0492 15.0171 11.2515 14.9935 11.4515H14.9959ZM14.1873 11.0515L10.4965 9.39836C10.4517 9.37954 10.403 9.37164 10.3545 9.3753C10.306 9.37897 10.2591 9.3941 10.2176 9.41946L8.28157 11.0695L8.25266 11.0913C8.11805 11.1812 7.96247 11.2347 7.80105 11.2466C7.63963 11.2585 7.47788 11.2285 7.33153 11.1593C5.92523 10.4804 4.52596 9.09055 3.84703 7.70069C3.7772 7.55547 3.74598 7.39471 3.75638 7.23391C3.76678 7.07312 3.81845 6.91772 3.9064 6.78271C3.91344 6.77177 3.92125 6.7624 3.92906 6.75224L5.58459 4.78347C5.60941 4.74127 5.62396 4.69383 5.62708 4.64498C5.63021 4.59613 5.62181 4.54723 5.60256 4.50221L3.95094 0.819363C3.92766 0.762269 3.88802 0.713336 3.837 0.67872C3.78598 0.644105 3.72586 0.625355 3.66421 0.624829C3.65172 0.624053 3.63919 0.624053 3.62671 0.624829C2.79406 0.735152 2.0301 1.14495 1.47766 1.77761C0.925222 2.41027 0.622123 3.22247 0.625032 4.06237C0.625032 9.74837 5.25177 14.375 10.9379 14.375C11.7778 14.3779 12.5901 14.0748 13.2227 13.5224C13.8554 12.9699 14.2652 12.206 14.3755 11.3734C14.3827 11.3063 14.3681 11.2388 14.3337 11.1808C14.2994 11.1228 14.2472 11.0774 14.1849 11.0515H14.1873Z" fill="#00AAFD"/>
</svg>
