<svg width="13" height="10" viewBox="0 0 13 10" fill="none" xmlns="http://www.w3.org/2000/svg">
<path d="M0.947917 0H12.0521C12.5753 0 13 0.448 13 1V9C13 9.26522 12.9001 9.51957 12.7224 9.70711C12.5446 9.89464 12.3035 10 12.0521 10H0.947917C0.696514 10 0.455407 9.89464 0.277638 9.70711C0.0998695 9.51957 0 9.26522 0 9L0 1C0 0.448 0.424667 0 0.947917 0ZM0.8125 2.52114V9C0.8125 9.07886 0.873167 9.14286 0.947917 9.14286H12.0521C12.088 9.14286 12.1224 9.12781 12.1478 9.10102C12.1732 9.07422 12.1875 9.03789 12.1875 9V2.52114L7.03083 6.19714C6.71017 6.42571 6.28983 6.42571 5.96917 6.19714L0.8125 2.52114ZM0.8125 1V1.48686L6.42417 5.48686C6.44656 5.50283 6.47297 5.51136 6.5 5.51136C6.52703 5.51136 6.55344 5.50283 6.57583 5.48686L12.1875 1.48686V1C12.1875 0.962112 12.1732 0.925776 12.1478 0.898985C12.1224 0.872194 12.088 0.857143 12.0521 0.857143H0.947917C0.912002 0.857143 0.877558 0.872194 0.852163 0.898985C0.826767 0.925776 0.8125 0.962112 0.8125 1Z" fill="#00AAFD"/>
</svg>
