<svg width="17" height="17" viewBox="0 0 17 17" fill="none" xmlns="http://www.w3.org/2000/svg">
<path d="M8.33379 6.33073C6.86482 6.33073 5.66603 7.52954 5.66603 8.99854C5.66603 10.4675 6.86482 11.6663 8.33379 11.6663C9.80275 11.6663 11.0015 10.4675 11.0015 8.99854C11.0015 7.52954 9.80275 6.33073 8.33379 6.33073ZM16.335 8.99854C16.335 7.89379 16.3451 6.79905 16.283 5.6963C16.221 4.41544 15.9288 3.27867 14.9922 2.34204C14.0535 1.4034 12.9188 1.11321 11.638 1.05117C10.5332 0.989124 9.43851 0.99913 8.33579 0.99913C7.23106 0.99913 6.13634 0.989124 5.03362 1.05117C3.75278 1.11321 2.61603 1.4054 1.67942 2.34204C0.740798 3.28067 0.450608 4.41544 0.388567 5.6963C0.326526 6.80105 0.336533 7.89579 0.336533 8.99854C0.336533 10.1013 0.326526 11.198 0.388567 12.3008C0.450608 13.5816 0.7428 14.7184 1.67942 15.655C2.61803 16.5937 3.75278 16.8839 5.03362 16.9459C6.13835 17.0079 7.23306 16.9979 8.33579 16.9979C9.44051 16.9979 10.5352 17.0079 11.638 16.9459C12.9188 16.8839 14.0555 16.5917 14.9922 15.655C15.9308 14.7164 16.221 13.5816 16.283 12.3008C16.3471 11.198 16.335 10.1033 16.335 8.99854ZM8.33379 13.1033C6.06229 13.1033 4.22909 11.2701 4.22909 8.99854C4.22909 6.727 6.06229 4.89376 8.33379 4.89376C10.6053 4.89376 12.4385 6.727 12.4385 8.99854C12.4385 11.2701 10.6053 13.1033 8.33379 13.1033ZM12.6066 5.6843C12.0762 5.6843 11.648 5.25601 11.648 4.72565C11.648 4.19529 12.0762 3.767 12.6066 3.767C13.1369 3.767 13.5652 4.19529 13.5652 4.72565C13.5654 4.85158 13.5407 4.97631 13.4926 5.09269C13.4445 5.20907 13.3738 5.31482 13.2848 5.40387C13.1958 5.49292 13.09 5.56352 12.9736 5.61165C12.8573 5.65977 12.7325 5.68445 12.6066 5.6843Z" fill="#484848"/>
</svg>
