<svg width="17" height="17" viewBox="0 0 17 17" fill="none" xmlns="http://www.w3.org/2000/svg">
<path d="M8.33379 5.33366C6.86482 5.33366 5.66603 6.53247 5.66603 8.00146C5.66603 9.47046 6.86482 10.6693 8.33379 10.6693C9.80275 10.6693 11.0015 9.47046 11.0015 8.00146C11.0015 6.53247 9.80275 5.33366 8.33379 5.33366ZM16.335 8.00146C16.335 6.89672 16.3451 5.80198 16.283 4.69923C16.221 3.41837 15.9288 2.2816 14.9922 1.34497C14.0535 0.406333 12.9188 0.116137 11.638 0.0540953C10.5332 -0.00794666 9.43851 0.00206013 8.33579 0.00206013C7.23106 0.00206013 6.13634 -0.00794666 5.03362 0.0540953C3.75278 0.116137 2.61603 0.408335 1.67942 1.34497C0.740798 2.2836 0.450608 3.41837 0.388567 4.69923C0.326526 5.80398 0.336533 6.89872 0.336533 8.00146C0.336533 9.10421 0.326526 10.201 0.388567 11.3037C0.450608 12.5846 0.7428 13.7213 1.67942 14.658C2.61803 15.5966 3.75278 15.8868 5.03362 15.9488C6.13835 16.0109 7.23306 16.0009 8.33579 16.0009C9.44051 16.0009 10.5352 16.0109 11.638 15.9488C12.9188 15.8868 14.0555 15.5946 14.9922 14.658C15.9308 13.7193 16.221 12.5846 16.283 11.3037C16.3471 10.201 16.335 9.10621 16.335 8.00146ZM8.33379 12.1062C6.06229 12.1062 4.22909 10.273 4.22909 8.00146C4.22909 5.72993 6.06229 3.89669 8.33379 3.89669C10.6053 3.89669 12.4385 5.72993 12.4385 8.00146C12.4385 10.273 10.6053 12.1062 8.33379 12.1062ZM12.6066 4.68723C12.0762 4.68723 11.648 4.25894 11.648 3.72858C11.648 3.19822 12.0762 2.76993 12.6066 2.76993C13.1369 2.76993 13.5652 3.19822 13.5652 3.72858C13.5654 3.85451 13.5407 3.97924 13.4926 4.09562C13.4445 4.212 13.3738 4.31775 13.2848 4.4068C13.1958 4.49585 13.09 4.56645 12.9736 4.61457C12.8573 4.6627 12.7325 4.68738 12.6066 4.68723Z" fill="#CDDAE0"/>
</svg>
