<svg width="37" height="38" viewBox="0 0 37 38" fill="none" xmlns="http://www.w3.org/2000/svg">
<path d="M18.3 36.1565C14.8492 36.1177 11.4825 35.0766 8.61077 33.1577C5.68356 31.2018 3.40208 28.4218 2.05484 25.1693C0.70759 21.9168 0.35509 18.3378 1.04191 14.8849C1.72873 11.432 3.42402 8.26034 5.91341 5.77095C8.40279 3.28157 11.5745 1.58627 15.0273 0.899453C18.4802 0.212634 22.0592 0.565134 25.3118 1.91238C28.5643 3.25963 31.3443 5.54111 33.3002 8.46831C35.2561 11.3955 36.3 14.837 36.3 18.3575C36.3 18.7206 36.2761 19.0786 36.2497 19.4432H13.3995H13.1941L13.1996 19.6485C13.3329 24.6733 14.8064 29.5712 17.4676 33.8355L17.5177 33.9158L17.6116 33.9279C17.84 33.9575 18.0698 33.9758 18.3 33.9829V36.1565ZM33.8643 17.2718H34.0821L34.0636 17.0548C33.7928 13.8774 32.5575 10.8586 30.5231 8.40295C28.4887 5.94726 25.7524 4.17193 22.6809 3.3148L22.2361 3.19067L22.4498 3.60003C24.6269 7.76856 25.8294 12.3769 25.9668 17.0776L25.9725 17.2718H26.1667H33.8643ZM19.5311 2.87954L19.3777 2.97527L19.39 2.78714C18.8 2.70975 18.2025 2.70975 17.6125 2.78714L17.5189 2.79942L17.4689 2.87954C14.8072 7.14368 13.3333 12.0416 13.1996 17.0665L13.1941 17.2718H13.3995H23.6004H23.8058L23.8003 17.0665C23.6667 12.0416 22.1927 7.14368 19.5311 2.87954ZM14.5129 3.36468L14.3203 3.1722L14.2331 3.33904C11.1966 4.20528 8.49242 5.97039 6.47704 8.40313C4.44269 10.8588 3.20729 13.8775 2.93634 17.0548L2.91783 17.2718H3.13561H10.8332H11.0275L11.0331 17.0776C11.1692 12.4061 12.3571 7.82574 14.5079 3.67739L14.7564 3.60802L14.5142 3.36597L14.5129 3.36468ZM3.13561 19.4432H2.91783L2.93634 19.6602C3.20729 22.8376 4.44269 25.8562 6.47704 28.3119C8.5114 30.7675 11.2476 32.5429 14.319 33.4002L14.7639 33.5244L14.5501 33.115C12.3732 28.9464 11.1707 24.3381 11.0331 19.6374L11.0274 19.4432H10.8332H3.13561Z" fill="#003760" stroke="white" stroke-width="0.4"/>
<path fill-rule="evenodd" clip-rule="evenodd" d="M30.0714 29.9292L36.5 32.5006V29.9292L30.0714 26.7149V23.5006C30.0714 23.1596 29.936 22.8325 29.6949 22.5914C29.4538 22.3503 29.1267 22.2148 28.7857 22.2148C28.4447 22.2148 28.1177 22.3503 27.8766 22.5914C27.6355 22.8325 27.5 23.1596 27.5 23.5006V26.7149L21.0714 29.9292V32.5006L27.5 29.9292V34.4292L24.9286 36.3578V37.6435L28.7857 36.3578L32.6429 37.6435V36.3578L30.0714 34.4292V29.9292Z" fill="#003760"/>
</svg>
