<svg width="35" height="38" viewBox="0 0 35 38" fill="none" xmlns="http://www.w3.org/2000/svg">
<path d="M32.4069 0.143066H2.59321C2.00017 0.143066 1.43143 0.391435 1.01209 0.833534C0.592758 1.27563 0.357178 1.87525 0.357178 2.50047V14.0459C0.357178 31.1115 14.0603 36.7752 16.8069 37.7378C17.2566 37.8976 17.7435 37.8976 18.1932 37.7378C20.9398 36.7752 34.6429 31.1115 34.6429 14.0459V2.50047C34.6429 1.87525 34.4074 1.27563 33.988 0.833534C33.5687 0.391435 32.9999 0.143066 32.4069 0.143066ZM33.1523 14.0498C33.1523 30.0369 20.2951 35.347 17.7237 36.2487C17.5792 36.3038 17.421 36.3038 17.2765 36.2487C14.705 35.347 1.84786 30.0369 1.84786 14.0498V2.50047C1.84786 2.29207 1.92639 2.09219 2.06617 1.94483C2.20595 1.79746 2.39553 1.71467 2.59321 1.71467H32.4069C32.6046 1.71467 32.7942 1.79746 32.934 1.94483C33.0737 2.09219 33.1523 2.29207 33.1523 2.50047V14.0498ZM25.4808 11.3741C25.5501 11.4471 25.6051 11.5338 25.6426 11.6292C25.6801 11.7246 25.6994 11.8268 25.6994 11.9301C25.6994 12.0334 25.6801 12.1356 25.6426 12.231C25.6051 12.3264 25.5501 12.4131 25.4808 12.4861L15.046 23.4873C14.9768 23.5603 14.8946 23.6183 14.8041 23.6579C14.7136 23.6974 14.6166 23.7177 14.5187 23.7177C14.4207 23.7177 14.3238 23.6974 14.2333 23.6579C14.1428 23.6183 14.0606 23.5603 13.9914 23.4873L9.5193 18.7725C9.37945 18.625 9.30088 18.425 9.30088 18.2165C9.30088 18.008 9.37945 17.808 9.5193 17.6606C9.65916 17.5131 9.84885 17.4303 10.0466 17.4303C10.2444 17.4303 10.4341 17.5131 10.574 17.6606L14.5187 21.8194L24.4262 11.3741C24.4954 11.3011 24.5776 11.2431 24.6681 11.2036C24.7585 11.164 24.8555 11.1437 24.9535 11.1437C25.0514 11.1437 25.1484 11.164 25.2389 11.2036C25.3294 11.2431 25.4116 11.3011 25.4808 11.3741Z" fill="#003760"/>
</svg>
