<svg width="53" height="48" viewBox="0 0 53 48" fill="none" xmlns="http://www.w3.org/2000/svg">
<path d="M5.00555 16.1799V15.6744H4.5H1.00555V11.2549L1.94971 10.832L25.9424 0.943137L25.9426 0.943028L26.5 0.713678L27.0573 0.943001L27.0576 0.943137L51.0512 10.8363L51.9944 11.2543V15.6744H48.5H47.9944V16.1799V37.9421V38.4476H48.5H51.9944V47.3284H1.00555V38.4476H4.5H5.00555V37.9421V16.1799ZM26.6926 4.02826L26.5 3.94887L26.3074 4.02826L7.55736 11.7558L7.75 12.7288H45.25L45.4426 11.7558L26.6926 4.02826ZM8.5 15.6744H7.99445V16.1799V37.9421V38.4476H8.5H12.5H13.0056V37.9421V16.1799V15.6744H12.5H8.5ZM16.5 15.6744H15.9944V16.1799V37.9421V38.4476H16.5H20.5H21.0056V37.9421V16.1799V15.6744H20.5H16.5ZM24.5 15.6744H23.9944V16.1799V37.9421V38.4476H24.5H28.5H29.0056V37.9421V16.1799V15.6744H28.5H24.5ZM32.5 15.6744H31.9944V16.1799V37.9421V38.4476H32.5H36.5H37.0056V37.9421V16.1799V15.6744H36.5H32.5ZM40.5 15.6744H39.9944V16.1799V37.9421V38.4476H40.5H44.5H45.0056V37.9421V16.1799V15.6744H44.5H40.5ZM4.5 41.3932H3.99445V41.8988V43.8772V44.3827H4.5H48.5H49.0056V43.8772V41.8988V41.3932H48.5H4.5Z" fill="#003760" stroke="white" stroke-width="1.01111"/>
</svg>
