<svg width="17" height="12" viewBox="0 0 17 12" fill="none" xmlns="http://www.w3.org/2000/svg">
<path d="M10.0125 11.275C9.81253 11.075 9.71653 10.8334 9.72453 10.55C9.73253 10.2667 9.83686 10.025 10.0375 9.82505L12.8625 7.00005H1.71253C1.42919 7.00005 1.19153 6.90405 0.999528 6.71205C0.807528 6.52005 0.711861 6.28272 0.712528 6.00005C0.712528 5.71672 0.808528 5.47905 1.00053 5.28705C1.19253 5.09505 1.42986 4.99938 1.71253 5.00005H12.8625L10.0125 2.15005C9.81253 1.95005 9.71253 1.71238 9.71253 1.43705C9.71253 1.16172 9.81253 0.924382 10.0125 0.725049C10.2125 0.525049 10.4502 0.425049 10.7255 0.425049C11.0009 0.425049 11.2382 0.525049 11.4375 0.725049L16.0125 5.30005C16.1125 5.40005 16.1835 5.50838 16.2255 5.62505C16.2675 5.74172 16.2882 5.86672 16.2875 6.00005C16.2875 6.13338 16.2665 6.25838 16.2245 6.37505C16.1825 6.49172 16.1119 6.60005 16.0125 6.70005L11.4125 11.3C11.2292 11.4834 11.0002 11.575 10.7255 11.575C10.4509 11.575 10.2132 11.475 10.0125 11.275Z" fill="white"/>
</svg>
