<svg width="41" height="42" viewBox="0 0 41 42" fill="none" xmlns="http://www.w3.org/2000/svg">
<path fill-rule="evenodd" clip-rule="evenodd" d="M24.5369 2.74931L25.9989 4.21131C26.5649 4.77331 27.3209 5.08531 28.1249 5.08531H30.1809C33.5029 5.08531 36.2049 7.78731 36.2049 11.1093V13.1633C36.2049 13.9653 36.5169 14.7233 37.0829 15.2933L38.5189 16.7313C39.6569 17.8613 40.2889 19.3713 40.2949 20.9813C40.3009 22.5913 39.6789 24.1053 38.5449 25.2473L37.0789 26.7093C36.5169 27.2753 36.2049 28.0293 36.2049 28.8333V30.8913C36.2049 34.2113 33.5029 36.9133 30.1829 36.9133H28.1209C27.3289 36.9133 26.5549 37.2333 25.9929 37.7913L24.5569 39.2273C23.3829 40.4093 21.8349 41.0013 20.2869 41.0013C18.7529 41.0013 17.2189 40.4213 16.0449 39.2573C16.0289 39.2413 16.0129 39.2253 15.9969 39.2073L14.5769 37.7893C14.0109 37.2273 13.2549 36.9153 12.4509 36.9133H10.3989C7.07687 36.9133 4.37687 34.2113 4.37687 30.8913V28.8293C4.37687 28.0253 4.06287 27.2713 3.49887 26.7033L2.06087 25.2673C-0.275127 22.9433 -0.303127 19.1593 1.99087 16.7993L2.04487 16.7453L3.50087 15.2853C4.06287 14.7193 4.37687 13.9613 4.37687 13.1593V11.1093C4.37687 7.78931 7.07687 5.08731 10.3969 5.08531H12.4569C13.2589 5.08531 14.0149 4.77131 14.5889 4.20531L16.0189 2.77131C18.3569 0.417308 22.1789 0.405308 24.5369 2.74931ZM18.1449 4.88931L16.7069 6.33131C15.5589 7.46531 14.0529 8.08531 12.4569 8.08531H10.3989C8.73287 8.08731 7.37687 9.44331 7.37687 11.1093V13.1593C7.37687 14.7613 6.75487 16.2673 5.62687 17.4033L4.20687 18.8253C4.19287 18.8413 4.17887 18.8533 4.16487 18.8673C2.99087 20.0493 2.99687 21.9673 4.17887 23.1413L5.62287 24.5853C6.75487 25.7213 7.37687 27.2273 7.37687 28.8293V30.8913C7.37687 32.5573 8.73087 33.9133 10.3989 33.9133H12.4529C14.0569 33.9153 15.5629 34.5373 16.6969 35.6673L18.1389 37.1053L18.1789 37.1493C19.3589 38.3013 21.2589 38.2873 22.4309 37.1093L23.8749 35.6693C24.9949 34.5513 26.5429 33.9133 28.1209 33.9133H30.1809C31.8489 33.9133 33.2049 32.5573 33.2049 30.8913V28.8333C33.2049 27.2313 33.8249 25.7253 34.9569 24.5913L36.3969 23.1493C36.9829 22.5613 37.2969 21.7993 37.2949 20.9913C37.2929 20.1853 36.9749 19.4273 36.4009 18.8553L34.9589 17.4113C33.8249 16.2693 33.2049 14.7653 33.2049 13.1633V11.1093C33.2049 9.44131 31.8489 8.08531 30.1809 8.08531H28.1249C26.5229 8.08531 25.0169 7.46331 23.8829 6.33731L22.4389 4.89131C21.2369 3.70131 19.3189 3.70731 18.1449 4.88931ZM25.2961 23.9967C26.4021 23.9967 27.2961 24.8907 27.2961 25.9967C27.2961 27.1027 26.4021 27.9967 25.2961 27.9967C24.1901 27.9967 23.2861 27.1027 23.2861 25.9967C23.2861 24.8907 24.1721 23.9967 25.2781 23.9967H25.2961ZM26.4917 14.7993C27.0777 15.3853 27.0777 16.3353 26.4917 16.9213L16.2097 27.2013C15.9177 27.4953 15.5337 27.6413 15.1497 27.6413C14.7657 27.6413 14.3817 27.4953 14.0897 27.2013C13.5037 26.6153 13.5037 25.6673 14.0897 25.0813L24.3697 14.7993C24.9557 14.2133 25.9057 14.2133 26.4917 14.7993ZM15.2961 13.9967C16.4021 13.9967 17.2961 14.8907 17.2961 15.9967C17.2961 17.1027 16.4021 17.9967 15.2961 17.9967C14.1901 17.9967 13.2861 17.1027 13.2861 15.9967C13.2861 14.8907 14.1721 13.9967 15.2781 13.9967H15.2961Z" fill="#0D1250"/>
</svg>
