<svg width="40" height="40" viewBox="0 0 40 40" fill="none" xmlns="http://www.w3.org/2000/svg">
<path fill-rule="evenodd" clip-rule="evenodd" d="M15.184 24.8578C21.702 24.8578 30.368 25.5918 30.368 31.9418C30.368 38.6309 20.2702 39.0322 15.9388 39.0563L14.3662 39.0563C9.74787 39.0324 0 38.6333 0 31.9818C0 25.2853 10.0978 24.8835 14.4292 24.8594L14.9496 24.8579C15.0307 24.8578 15.1089 24.8578 15.184 24.8578ZM15.184 27.8578C9.626 27.8578 3 28.5718 3 31.9818C3 34.6858 7.1 36.0578 15.184 36.0578C23.268 36.0578 27.368 34.6718 27.368 31.9418C27.368 29.2318 23.268 27.8578 15.184 27.8578ZM33.4134 23.9236C38.8254 24.7336 39.9594 27.2396 39.9594 29.1976C39.9594 30.6556 39.3294 32.6296 36.3234 33.7676C36.1494 33.8336 35.9694 33.8656 35.7914 33.8656C35.1854 33.8656 34.6154 33.4956 34.3894 32.8976C34.0954 32.1236 34.4854 31.2556 35.2594 30.9636C36.9594 30.3196 36.9594 29.5336 36.9594 29.1976C36.9594 28.0636 35.6174 27.2876 32.9714 26.8936C32.1514 26.7696 31.5854 26.0056 31.7074 25.1876C31.8314 24.3676 32.6094 23.8176 33.4134 23.9236ZM15.184 0.943848C20.846 0.943848 25.4541 5.55185 25.4541 11.2138C25.466 13.9418 24.408 16.5178 22.48 18.4578C20.556 20.3998 17.986 21.4738 15.252 21.4838H15.184C9.52 21.4838 4.912 16.8758 4.912 11.2138C4.912 5.55185 9.52 0.943848 15.184 0.943848ZM29.3592 3.19145C33.2892 3.83545 36.1412 7.19745 36.1412 11.1834C36.1332 15.1934 33.1392 18.6374 29.1752 19.1934C29.1052 19.2034 29.0352 19.2074 28.9652 19.2074C28.2292 19.2074 27.5872 18.6654 27.4812 17.9154C27.3672 17.0954 27.9372 16.3354 28.7572 16.2214C31.2532 15.8714 33.1372 13.7054 33.1412 11.1814C33.1412 8.67345 31.3452 6.55745 28.8752 6.15345C28.0572 6.01745 27.5032 5.24745 27.6372 4.42945C27.7712 3.61145 28.5452 3.06145 29.3592 3.19145ZM15.184 3.94385C11.174 3.94385 7.912 7.20585 7.912 11.2138C7.912 15.2218 11.174 18.4838 15.184 18.4838H15.246C17.174 18.4758 18.99 17.7178 20.352 16.3438C21.716 14.9738 22.462 13.1518 22.4541 11.2198C22.4541 7.20585 19.192 3.94385 15.184 3.94385Z" fill="#0D1250"/>
</svg>
