<svg width="15" height="13" viewBox="0 0 15 13" fill="none" xmlns="http://www.w3.org/2000/svg">
<path d="M4.71187 12.9985C10.3725 12.9985 13.4691 8.38063 13.4691 4.38299C13.4691 4.25377 13.4691 4.1227 13.4634 3.99348C14.0663 3.56379 14.5866 3.03182 15 2.42248C14.4369 2.66695 13.8401 2.82807 13.2291 2.90061C13.8727 2.52184 14.3547 1.92587 14.5856 1.22347C13.9809 1.57618 13.3191 1.82378 12.6291 1.95543C12.1652 1.46902 11.5513 1.14678 10.8826 1.03864C10.2138 0.930499 9.52755 1.04248 8.93 1.35725C8.33246 1.67202 7.85701 2.172 7.5773 2.77975C7.29759 3.3875 7.22923 4.0691 7.38281 4.71898C6.15913 4.65857 4.96202 4.34558 3.8691 3.80033C2.77619 3.25507 1.81189 2.48972 1.03875 1.55391C0.646256 2.22134 0.526475 3.01082 0.703731 3.76204C0.880986 4.51326 1.34199 5.1699 1.99312 5.59862C1.50519 5.5823 1.02799 5.4533 0.6 5.22203V5.26356C0.600841 5.96274 0.846851 6.64019 1.29644 7.18139C1.74604 7.7226 2.37164 8.09437 3.0675 8.23387C2.80337 8.30551 2.53053 8.34122 2.25656 8.34001C2.06342 8.34059 1.87067 8.32297 1.68094 8.2874C1.87761 8.88927 2.26057 9.41549 2.77617 9.79238C3.29177 10.1693 3.91419 10.3779 4.55625 10.3891C3.46552 11.2326 2.11819 11.6901 0.73125 11.6878C0.486863 11.6889 0.242647 11.675 0 11.6463C1.40767 12.5299 3.04247 12.999 4.71187 12.9985Z" fill="#484848"/>
</svg>
