<svg width="14" height="17" viewBox="0 0 14 17" fill="none" xmlns="http://www.w3.org/2000/svg">
<path d="M14 5.39954V4.81461C13.2806 4.8157 12.5754 4.61435 11.9651 4.23356C12.5054 4.82474 13.2168 5.23242 14 5.39966V5.39954ZM10.2093 1.6369C10.191 1.53232 10.177 1.42703 10.1672 1.32131V0.967773H7.40081V11.9471C7.39642 13.227 6.35715 14.2634 5.07545 14.2634C4.7121 14.2639 4.35371 14.179 4.02925 14.0154C4.45415 14.5728 5.12513 14.9325 5.88032 14.9325C7.1619 14.9325 8.20128 13.8962 8.2058 12.6163V1.63696H10.2093V1.6369ZM5.78137 7.53648V6.91367C5.5502 6.88208 5.31715 6.86627 5.08384 6.86637C2.27603 6.86637 0 9.14118 0 11.9471C0 13.7064 0.894508 15.2568 2.25382 16.1687C1.35729 15.2528 0.804924 13.9991 0.804924 12.6162C0.804924 9.846 3.02306 7.59351 5.78137 7.53654V7.53648Z" fill="#484848"/>
</svg>
