<svg width="14" height="17" viewBox="0 0 14 17" fill="none" xmlns="http://www.w3.org/2000/svg">
<path d="M10.167 5.34145C11.2475 6.11317 12.5705 6.56722 13.9997 6.56722V4.4035C13.2019 4.23365 12.4957 3.81702 11.9648 3.23747C11.0559 2.67059 10.4011 1.73542 10.2091 0.640869H8.20555V11.6201C8.20098 12.9001 7.16172 13.9365 5.88008 13.9365C5.12489 13.9365 4.45391 13.5767 4.029 13.0192C3.27023 12.6365 2.74985 11.8506 2.74985 10.9431C2.74985 9.65963 3.79085 8.61898 5.07521 8.61898C5.32129 8.61898 5.55846 8.65726 5.78095 8.72782V6.54045C3.02276 6.59741 0.804565 8.8499 0.804565 11.6202C0.804565 13.0031 1.35693 14.2567 2.25346 15.1728C3.06226 15.7155 4.03589 16.0322 5.08348 16.0322C7.891 16.0322 10.167 13.7573 10.167 10.9511V5.3415H10.167V5.34145Z" fill="#CDDAE0"/>
</svg>
