<svg width="15" height="13" viewBox="0 0 15 13" fill="none" xmlns="http://www.w3.org/2000/svg">
<path d="M4.71187 12.0015C10.3725 12.0015 13.4691 7.38356 13.4691 3.38592C13.4691 3.2567 13.4691 3.12563 13.4634 2.99641C14.0663 2.56672 14.5866 2.03475 15 1.42541C14.4369 1.66988 13.8401 1.831 13.2291 1.90354C13.8727 1.52477 14.3547 0.928795 14.5856 0.2264C13.9809 0.579111 13.3191 0.826713 12.6291 0.958361C12.1652 0.471948 11.5513 0.149713 10.8826 0.041571C10.2138 -0.0665712 9.52755 0.0454144 8.93 0.360181C8.33246 0.674949 7.85701 1.17493 7.5773 1.78268C7.29759 2.39043 7.22923 3.07203 7.38281 3.72191C6.15913 3.6615 4.96202 3.34851 3.8691 2.80326C2.77619 2.258 1.81189 1.49265 1.03875 0.556844C0.646256 1.22427 0.526475 2.01375 0.703731 2.76497C0.880986 3.51619 1.34199 4.17283 1.99312 4.60155C1.50519 4.58523 1.02799 4.45623 0.6 4.22496V4.26649C0.600841 4.96567 0.846851 5.64312 1.29644 6.18432C1.74604 6.72553 2.37164 7.0973 3.0675 7.2368C2.80337 7.30844 2.53053 7.34415 2.25656 7.34294C2.06342 7.34352 1.87067 7.3259 1.68094 7.29033C1.87761 7.8922 2.26057 8.41842 2.77617 8.79531C3.29177 9.17219 3.91419 9.38085 4.55625 9.39207C3.46552 10.2355 2.11819 10.693 0.73125 10.6908C0.486863 10.6918 0.242647 10.6779 0 10.6492C1.40767 11.5328 3.04247 12.002 4.71187 12.0015Z" fill="#CDDAE0"/>
</svg>
