<svg width="14" height="12" viewBox="0 0 14 12" fill="none" xmlns="http://www.w3.org/2000/svg">
<path d="M13.7068 1.99554C13.6276 1.64228 13.4732 1.32246 13.2601 1.07007C13.0409 0.809924 12.7724 0.623834 12.4797 0.529366C11.3843 0.168653 6.99592 0.168653 6.99592 0.168653C5.16644 0.142647 3.33741 0.257027 1.51916 0.511148C1.22647 0.612595 0.958393 0.802843 0.738761 1.06497C0.522956 1.32439 0.366644 1.6443 0.284988 1.99481C0.0888356 3.31505 -0.00646876 4.6556 0.000359975 5.99837C-0.00663908 7.33993 0.0884314 8.68004 0.284988 10.0019C0.364894 10.351 0.520623 10.6694 0.737011 10.9267C0.953398 11.1839 1.22286 11.3697 1.51916 11.4681C2.62909 11.8281 6.99592 11.8281 6.99592 11.8281C8.82773 11.8541 10.6591 11.7397 12.4797 11.4856C12.7724 11.3911 13.0409 11.205 13.2601 10.9449C13.4731 10.6925 13.6273 10.3727 13.7063 10.0194C13.9075 8.69968 14.0054 7.35858 13.9985 6.01513C14.0136 4.66599 13.9159 3.31857 13.7068 1.99481V1.99554ZM5.60077 8.49349V3.50398L9.25195 5.9991L5.60077 8.49349Z" fill="#484848"/>
</svg>
