<svg width="14" height="12" viewBox="0 0 14 12" fill="none" xmlns="http://www.w3.org/2000/svg">
<path d="M13.7068 1.99847C13.6276 1.64521 13.4732 1.32539 13.2601 1.073C13.0409 0.812854 12.7724 0.626763 12.4797 0.532296C11.3843 0.171582 6.99592 0.171582 6.99592 0.171582C5.16644 0.145576 3.33741 0.259957 1.51916 0.514078C1.22647 0.615525 0.958393 0.805773 0.738761 1.0679C0.522956 1.32732 0.366644 1.64723 0.284988 1.99774C0.0888356 3.31798 -0.00646876 4.65853 0.000359975 6.0013C-0.00663908 7.34286 0.0884314 8.68297 0.284988 10.0049C0.364894 10.3539 0.520623 10.6724 0.737011 10.9296C0.953398 11.1868 1.22286 11.3727 1.51916 11.471C2.62909 11.831 6.99592 11.831 6.99592 11.831C8.82773 11.8571 10.6591 11.7427 12.4797 11.4885C12.7724 11.3941 13.0409 11.208 13.2601 10.9478C13.4731 10.6955 13.6273 10.3756 13.7063 10.0223C13.9075 8.70261 14.0054 7.36151 13.9985 6.01806C14.0136 4.66892 13.9159 3.3215 13.7068 1.99774V1.99847ZM5.60077 8.49642V3.50691L9.25195 6.00203L5.60077 8.49642Z" fill="#CDDAE0"/>
</svg>
